<?xml version="1.0" standalone="no"?>
<!DOCTYPE svg PUBLIC "-//W3C//DTD SVG 20010904//EN"
 "http://www.w3.org/TR/2001/REC-SVG-20010904/DTD/svg10.dtd">
<svg version="1.0" xmlns="http://www.w3.org/2000/svg"
 width="441.000000pt" height="283.000000pt" viewBox="0 0 441.000000 283.000000"
 preserveAspectRatio="xMidYMid meet">

<g transform="translate(0.000000,283.000000) scale(0.100000,-0.100000)"
fill="#000000" stroke="none">
<path d="M3345 2751 c-16 -10 -582 -572 -1257 -1248 l-1228 -1228 0 -45 c0
-62 29 -106 79 -121 21 -6 52 -9 68 -5 20 5 394 373 1271 1249 l1242 1242 0
43 c0 57 -21 96 -64 116 -44 21 -74 20 -111 -3z"/>
<path d="M2015 2344 c-476 -69 -951 -330 -1382 -760 -73 -73 -133 -140 -133
-150 0 -23 235 -254 374 -368 59 -49 167 -129 240 -177 l131 -89 140 140 139
139 -22 46 c-63 130 -82 345 -42 499 53 208 210 397 407 492 83 40 228 74 320
74 105 0 297 -46 341 -82 10 -9 31 7 93 68 43 43 79 81 79 84 0 9 -92 37 -201
61 -71 15 -139 21 -274 24 -99 2 -193 1 -210 -1z"/>
<path d="M2995 1930 l-138 -138 22 -53 c43 -98 53 -144 58 -269 6 -152 -9
-234 -65 -352 -74 -158 -203 -289 -357 -362 -117 -56 -184 -70 -325 -70 -133
0 -203 14 -305 58 l-53 24 -78 -79 c-43 -43 -76 -81 -73 -83 12 -13 189 -57
282 -70 472 -71 968 87 1457 463 186 142 460 402 460 435 0 19 -124 150 -245
259 -124 111 -288 237 -416 320 l-86 55 -138 -138z"/>
<path d="M2075 1968 c-89 -16 -194 -75 -266 -147 -107 -107 -162 -239 -162
-386 0 -68 20 -182 33 -190 8 -5 706 693 699 699 -3 3 -31 12 -64 21 -65 16
-162 18 -240 3z"/>
<path d="M2345 1281 c-192 -193 -346 -353 -343 -357 4 -3 33 -13 65 -20 264
-62 537 86 636 346 37 99 40 266 5 350 l-13 30 -350 -349z"/>
</g>
</svg>
