<?xml version="1.0" standalone="no"?>
<!DOCTYPE svg PUBLIC "-//W3C//DTD SVG 20010904//EN"
 "http://www.w3.org/TR/2001/REC-SVG-20010904/DTD/svg10.dtd">
<svg version="1.0" xmlns="http://www.w3.org/2000/svg"
 width="425.000000pt" height="248.000000pt" viewBox="0 0 425.000000 248.000000"
 preserveAspectRatio="xMidYMid meet">

<g transform="translate(0.000000,248.000000) scale(0.100000,-0.100000)"
fill="#000000" stroke="none">
<path d="M1975 2143 c-361 -50 -752 -234 -1120 -529 -129 -104 -385 -354 -385
-377 0 -37 288 -310 481 -455 287 -216 610 -371 900 -432 130 -28 366 -38 493
-21 407 54 807 255 1221 613 124 107 285 272 285 292 0 35 -310 328 -490 463
-311 233 -684 399 -995 443 -67 9 -328 11 -390 3z m380 -178 c199 -53 386
-206 477 -390 61 -122 73 -179 73 -340 0 -167 -14 -227 -81 -355 -93 -178
-274 -322 -474 -376 -93 -25 -271 -25 -374 0 -249 61 -450 251 -536 506 -30
89 -38 285 -16 389 20 97 91 240 158 321 111 133 276 228 450 260 72 12 250 4
323 -15z"/>
<path d="M2026 1765 c-231 -59 -407 -281 -409 -518 -1 -103 16 -173 61 -261
170 -327 603 -396 863 -137 109 108 162 238 160 390 0 82 -16 167 -39 206 -9
17 -11 16 -25 -12 -38 -72 -130 -121 -210 -110 -59 8 -127 55 -154 107 -20 37
-24 56 -21 111 4 74 31 122 94 162 18 12 34 25 34 29 0 4 -24 15 -52 24 -74
23 -229 27 -302 9z"/>
</g>
</svg>
