<?xml version="1.0" encoding="UTF-8"?>
<!-- The Best Svg Icon site in the world: iconSvg.co, Visit us! https://iconsvg.co -->
<svg fill="#000000" width="800px" height="800px" version="1.1" viewBox="144 144 512 512" xmlns="http://www.w3.org/2000/svg">
 <g>
  <path d="m555.17 489.17c-13.098-50.383-36.777-114.36-72.547-138.55-22.168 19.145-50.887 31.238-82.625 31.238s-60.457-11.586-82.625-30.73c-36.277 23.676-59.449 87.66-72.551 138.04-9.0703 34.258 17.129 67.512 52.395 67.512h7.0547c7.0547 46.855 47.359 82.625 96.227 82.625 48.871 0 89.176-35.77 96.227-82.625h7.0547c34.766 0 60.461-33.25 51.391-67.512zm-155.17 124.95c-39.801 0-72.043-32.242-72.043-72.043-0.003906-39.801 32.242-72.047 72.043-72.047s72.043 32.242 72.043 72.043c0 39.805-32.242 72.047-72.043 72.047z"/>
  <path d="m494.71 255.41c0 52.309-42.406 94.715-94.715 94.715-52.312 0-94.719-42.406-94.719-94.715 0-52.312 42.406-94.719 94.719-94.719 52.309 0 94.715 42.406 94.715 94.719"/>
  <path d="m434.26 529.48h-21.664v-21.664c0-7.0547-5.543-12.594-12.594-12.594-7.0547 0-12.594 5.543-12.594 12.594v21.664h-21.664c-7.0547 0-12.594 5.543-12.594 12.594 0 7.0547 5.543 12.594 12.594 12.594h21.664l-0.003906 21.668c0 7.0547 5.543 12.594 12.594 12.594 7.0547 0 12.594-5.543 12.594-12.594v-21.664h21.664c7.0547 0 12.594-5.543 12.594-12.594 0.003906-7.0547-5.5352-12.598-12.59-12.598z"/>
 </g>
</svg>